<svg xmlns="http://www.w3.org/2000/svg" width="2048" height="2048" viewBox="0 0 2048 2048" fill="none">
<path d="M1180.33 217.852C1064.99 217.852 971.845 311.584 972.269 426.966C972.554 504.846 972.26 567.777 969.486 618.23C966.721 668.517 961.454 707.5 951.311 737.039C941.008 767.042 925.37 788.138 901.71 801.194C887.731 808.908 871.563 813.458 853.194 815.845C848.479 816.457 844.391 812.711 844.391 807.956V797.031C844.391 792.884 847.534 789.43 851.642 788.853C866.662 786.74 878.767 783.066 888.686 777.593C905.056 768.559 917.085 753.706 925.815 728.283C927.672 722.876 929.362 717.03 930.901 710.713C931.673 707.545 930.392 704.242 927.711 702.387C911.334 691.056 891.019 678.266 875.596 671.959C864.503 668.3 843.193 667.199 819.055 667.867C795.394 668.522 771.215 670.774 756.268 672.643L751.586 673.228C747.155 673.781 743.114 670.637 742.56 666.206L741.389 656.844C740.835 652.412 743.979 648.371 748.41 647.816L753.091 647.231C768.694 645.281 793.711 642.949 818.347 642.268C829.524 641.958 841.134 641.966 851.96 642.614C857.58 642.95 862.101 637.807 860.593 632.383C843.605 571.288 799.938 471.75 716.419 405.813C673.259 371.74 617.492 352.093 561.981 341.717C506.574 331.361 452.359 330.416 413.192 333.053C410.299 333.247 407.493 333.462 404.778 333.693C400.645 334.046 397.507 337.529 397.507 341.677V662.739C397.507 664.884 398.359 666.94 399.876 668.457L443.006 711.588C446.164 714.746 451.284 714.746 454.442 711.588L500.715 665.314C503.821 662.208 503.879 657.189 500.846 654.012L469.227 620.888C466.143 617.657 466.261 612.537 469.492 609.453L478.696 600.668C480.613 598.839 483.65 598.909 485.479 600.825C487.808 603.265 491.861 602.604 493.293 599.551L522.869 536.51C524.036 534.023 526.385 532.298 529.107 531.931L541.698 530.229C544.42 529.862 547.145 530.889 548.891 533.01C561.241 548.017 578.119 571.999 592.365 599.695C607.632 629.376 620.571 664.652 620.571 698.35C620.571 730.934 612.068 769.627 601.848 804.134C594.822 827.852 586.835 850.074 579.832 867.693C577.697 873.065 581.62 878.957 587.4 878.957H628.238C629.83 878.957 631.387 879.428 632.713 880.309L640.45 885.448C641.776 886.329 642.813 887.582 643.43 889.05L719.115 1069.06C720.846 1073.18 718.912 1077.92 714.795 1079.65L706.098 1083.31C701.981 1085.04 697.24 1083.1 695.509 1078.99L624.255 909.519C622.993 906.518 620.056 904.566 616.801 904.565H538.793C535.4 904.565 532.368 906.684 531.2 909.869L422.091 1207.43C421.03 1210.33 421.706 1213.57 423.834 1215.8L495.235 1290.6C498.893 1294.44 505.186 1293.78 507.968 1289.27L538.13 1240.38C541.453 1234.99 537.577 1228.04 531.247 1228.04H506.204C505.183 1228.04 504.171 1227.85 503.223 1227.47L497.319 1225.13C496.371 1224.76 495.501 1224.2 494.758 1223.5L474.817 1204.74C473.615 1203.6 472.788 1202.13 472.447 1200.52L470.476 1191.17C470.135 1189.55 470.297 1187.87 470.94 1186.35L554.785 988.112C556.058 985.104 559.015 983.156 562.281 983.176L575.136 983.252C578.402 983.272 581.337 985.255 582.573 988.278L637.222 1121.93C638.465 1124.97 641.423 1126.96 644.707 1126.96H775.203C778.582 1126.96 781.605 1124.86 782.783 1121.69L831.257 991.376C832.814 987.19 837.47 985.058 841.656 986.615L850.499 989.905C854.684 991.463 856.816 996.118 855.259 1000.3L802.607 1141.85C802.032 1143.4 800.997 1144.73 799.643 1145.67L791.586 1151.27C790.373 1152.11 788.93 1152.56 787.453 1152.56C779.75 1152.56 777.375 1163 784.318 1166.33L965.555 1253.38C968.692 1254.89 972.441 1254.22 974.863 1251.72L1035.85 1188.79C1038.96 1185.58 1044.08 1185.5 1047.29 1188.61L1054.06 1195.17C1057.27 1198.28 1057.35 1203.4 1054.24 1206.61L948.075 1316.16C947.319 1316.94 946.727 1317.86 946.347 1318.87C941.403 1332.11 933.939 1357.12 933.939 1376.3C933.94 1384.84 938.025 1396.09 944.466 1407.72C950.605 1418.81 957.992 1428.66 962.864 1434.29L1135.38 1606.81C1136.9 1608.33 1137.75 1610.39 1137.75 1612.53V1623.94C1137.75 1626.09 1136.9 1628.14 1135.38 1629.66L893.178 1871.87C891.661 1873.38 890.809 1875.44 890.809 1877.58V1888.47C890.809 1892.94 894.429 1896.56 898.896 1896.56H1011.54C1013.69 1896.56 1015.75 1895.71 1017.26 1894.19L1026.02 1885.43C1029.18 1882.27 1029.18 1877.15 1026.02 1873.99L997.027 1845C993.869 1841.84 993.87 1836.72 997.027 1833.56L1004.03 1826.56C1007 1823.58 1011.83 1823.58 1014.81 1826.56C1017.79 1829.54 1022.61 1829.54 1025.59 1826.56L1229.44 1622.71C1230.95 1621.2 1231.81 1619.14 1231.81 1617V1593.87C1231.81 1591.72 1230.95 1589.67 1229.44 1588.15L1151.11 1509.82C1149.93 1508.64 1149.14 1507.12 1148.86 1505.48L1147.22 1495.99C1146.94 1494.34 1147.17 1492.65 1147.89 1491.14L1191.1 1400.2C1191.65 1399.04 1192.47 1398.03 1193.49 1397.25L1199.66 1392.52C1200.68 1391.74 1201.86 1391.22 1203.12 1390.98C1229.01 1386.01 1268.1 1373.32 1302.7 1351.17C1338.2 1328.43 1367.39 1296.81 1374.88 1254.78C1387.16 1185.82 1375.64 1154.73 1366.79 1143.58C1366.46 1143.16 1366.08 1142.8 1365.66 1142.47C1365.14 1142.07 1364.62 1141.67 1364.09 1141.28C1360.79 1138.85 1359.33 1134.49 1360.98 1130.74L1365.43 1120.63C1367.09 1116.88 1371.35 1114.89 1374.89 1116.97C1378.13 1118.87 1381.21 1121.39 1384.04 1124.41C1412.59 1148.33 1421.15 1183.6 1421.84 1200.57L1421.85 1201.09V1534C1421.85 1592.31 1449.99 1633.94 1486.04 1662.79C1517.83 1688.24 1555.4 1703.35 1583.73 1710.29C1586.58 1710.99 1589.55 1710.01 1591.5 1707.82L1595.85 1702.93C1598.83 1699.58 1598.5 1694.46 1595.34 1691.27C1585.22 1681.07 1576.96 1669.24 1570.46 1657.92C1560.46 1640.49 1553.98 1623.15 1551.01 1612.14L1550.57 1608.8V1234.27C1550.57 1178.41 1533.22 1134.34 1509.97 1104.47C1486.43 1074.24 1457.79 1059.57 1435.33 1059.57C1395.75 1059.57 1358.06 1072.67 1342.33 1079.99C1340.78 1080.71 1339.05 1080.97 1337.36 1080.68L1327.66 1079.03C1325.97 1078.75 1324.41 1077.92 1323.19 1076.71C1276.27 1030.05 1200.24 1016.52 1138.13 1016.5C1112.7 1016.5 1090.32 1018.77 1074.35 1021.63L1069.7 1022.46C1065.31 1023.24 1061.1 1020.32 1060.32 1015.92L1058.66 1006.63C1057.87 1002.24 1060.79 998.036 1065.19 997.249L1069.83 996.418C1079.66 994.66 1091.46 993.139 1104.65 992.142C1110.54 991.696 1114.17 985.386 1111.45 980.147L1050.33 862.688C1048.48 859.12 1044.29 857.478 1040.43 858.626C1022.57 863.947 1001.02 866.934 975.389 868.732C942.998 871.006 902.579 871.438 852.493 871.521C848.024 871.529 844.391 867.907 844.391 863.438V852.655C844.391 848.192 848.014 844.573 852.478 844.565C902.499 844.481 942.034 844.052 973.501 841.844C1012.82 839.084 1037.27 833.637 1053.06 824.255C1067.7 815.558 1076.25 802.63 1081.26 780.136C1086.44 756.811 1087.41 724.978 1087.56 680.238C1087.61 662.084 1102.74 647.97 1120.19 647.819C1412.38 645.301 1568.2 584.906 1651.57 504.077C1734.62 423.565 1748.62 320.055 1750 223.051C1750.04 220.281 1747.77 217.852 1744.73 217.852H1180.33ZM904.003 1252.23C900.908 1250.74 897.211 1251.37 894.783 1253.8L795.24 1353.34C794.969 1353.61 794.725 1353.89 794.499 1354.2C787.862 1363.33 774.223 1390.08 774.223 1425.5C774.223 1459.81 792.35 1483.92 801.142 1491.78L801.963 1492.49L802.82 1493.27L892.104 1582.55C893.62 1584.07 894.472 1586.13 894.472 1588.27V1599.68C894.472 1601.82 893.62 1603.88 892.104 1605.4L637.092 1860.41C635.575 1861.93 634.723 1864.01 634.723 1866.16C634.723 1870.63 638.344 1874.32 642.81 1874.32H747.373C749.518 1874.32 751.574 1873.47 753.091 1871.95L761.852 1863.19C765.009 1860.03 765.01 1854.91 761.853 1851.76L732.182 1822.08C729.024 1818.93 729.024 1813.81 732.182 1810.65L738.853 1803.98C742.011 1800.82 747.131 1800.82 750.289 1803.98L759.406 1813.09C762.564 1816.25 767.685 1816.25 770.843 1813.09L968.636 1615.3C970.152 1613.78 971.004 1611.73 971.004 1609.58V1561.52C971.004 1559.38 970.152 1557.32 968.636 1555.8L946.797 1533.96C945.28 1532.45 944.428 1530.39 944.428 1528.25V1516.84C944.428 1514.69 945.28 1512.63 946.797 1511.12L969.416 1488.5C972.574 1485.34 972.574 1480.22 969.416 1477.06L944.428 1452.07L943.836 1451.44C937.919 1444.66 929.29 1433.17 922.064 1420.13C915.027 1407.42 908.33 1391.49 908.33 1376.3C908.33 1350.54 918.588 1319.19 923.817 1306.14C924.009 1305.66 924.245 1305.21 924.527 1304.78L926.341 1302C926.623 1301.57 926.946 1301.16 927.306 1300.79L944.21 1283.35C948.051 1279.38 946.88 1272.82 941.904 1270.43L904.003 1252.23ZM407.479 792.697C404.067 792.697 401.023 794.838 399.869 798.048L301.27 1072.27C300.256 1075.09 300.884 1078.24 302.901 1080.46L359.779 1142.88C363.264 1146.71 369.394 1146.32 372.371 1142.09L398.243 1105.33C402.013 1099.97 398.18 1092.59 391.629 1092.59H372.104C369.444 1092.59 366.954 1091.28 365.444 1089.09L358.302 1078.72C356.793 1076.53 356.458 1073.73 357.406 1071.25L428.766 884.173C429.934 881.111 432.834 879.056 436.11 878.971L448.953 878.636C452.229 878.551 455.234 880.452 456.56 883.449L479.657 935.663C482.6 942.314 492.142 942.004 494.646 935.176L511.305 889.742C511.875 888.187 512.909 886.845 514.267 885.896L522.116 880.414C523.474 879.466 525.09 878.957 526.746 878.957H530.338C536.238 878.957 540.152 872.843 537.682 867.484L505.369 797.397C504.048 794.532 501.18 792.698 498.025 792.697H407.479ZM428.528 638.275C430.953 635.861 434.639 635.234 437.685 636.793C438.735 637.331 439.784 637.876 440.827 638.428C445.345 640.815 451.397 644.189 455.856 647.432C459.595 650.151 465.173 654.663 466.865 661.541C468.973 670.107 464.131 676.509 460.67 679.971C455.03 685.611 447.392 687.172 440.534 684.96C434.179 682.91 429.394 677.99 426.854 672.276C425.619 669.496 423.032 664.151 420.65 659.304C419.981 657.941 418.377 655.718 417.317 653.653C416.35 651.77 417.137 649.69 418.627 648.186C421.747 645.037 425.647 641.144 428.528 638.275ZM511.397 252.896C483.546 252.896 452.449 257.115 431.71 260.782C427.888 261.458 425.138 264.796 425.138 268.678V298.315C425.138 302.917 428.967 306.587 433.566 306.455C471.564 305.365 518.616 307.559 566.688 316.544C624.479 327.346 684.689 348.137 732.287 385.714C831.75 464.237 877.525 585.95 890.555 646.94C891.094 649.464 892.762 651.552 895.077 652.691C905.133 657.642 915.961 664.039 926.21 670.606C931.247 673.834 937.984 670.821 938.665 664.878C940.313 650.479 941.596 634.493 942.571 616.751C942.948 609.894 943.277 602.795 943.566 595.446C943.614 594.24 943.399 593.06 942.916 591.954C926.559 554.52 891.938 488.654 831.177 403.183C782.686 334.972 714.769 297.346 652.521 276.761C590.229 256.161 534.378 252.896 511.397 252.896ZM452.768 440.242C476.215 440.242 495.224 459.251 495.224 482.698C495.224 506.146 476.215 525.154 452.768 525.154C429.32 525.154 410.312 506.146 410.312 482.698C410.312 459.25 429.32 440.242 452.768 440.242ZM452.768 467.198C444.207 467.198 437.268 474.138 437.268 482.698C437.268 491.259 444.207 498.198 452.768 498.198C461.328 498.198 468.268 491.258 468.268 482.698C468.267 474.138 461.328 467.198 452.768 467.198Z" fill="currentColor" />
</svg>